HIERARCHY
ROOT hip
{
  OFFSET 0 0 0
  CHANNELS 6 Xposition Yposition Zposition Zrotation Yrotation Xrotation
  JOINT abdomen
  {
    OFFSET 0 20.6881 -0.73152
    CHANNELS 3 Zrotation Xrotation Yrotation
    JOINT chest
    {
      OFFSET 0 11.7043 -0.48768
      CHANNELS 3 Zrotation Xrotation Yrotation
      JOINT neck
      {
        OFFSET 0 22.1894 -2.19456
        CHANNELS 3 Zrotation Xrotation Yrotation
        JOINT head
        {
          OFFSET -0.24384 7.07133 1.2192
          CHANNELS 3 Zrotation Xrotation Yrotation
          JOINT leftEye
          {
            OFFSET 4.14528 8.04674 8.04672
            CHANNELS 3 Zrotation Xrotation Yrotation
            End Site
            {
              OFFSET 1 0 0
            }
          }
          JOINT rightEye
          {
            OFFSET -3.6576 8.04674 8.04672
            CHANNELS 3 Zrotation Xrotation Yrotation
            End Site
            {
              OFFSET 1 0 0
            }
          }
        }
      }
      JOINT rCollar
      {
        OFFSET -2.68224 19.2634 -4.8768
        CHANNELS 3 Zrotation Xrotation Yrotation
        JOINT rShldr
        {
          OFFSET -8.77824 -1.95073 1.46304
          CHANNELS 3 Zrotation Xrotation Yrotation
          JOINT rForeArm
          {
            OFFSET -28.1742 -1.7115 0.48768
            CHANNELS 3 Zrotation Xrotation Yrotation
            JOINT rHand
            {
              OFFSET -22.5879 0.773209 7.07136
              CHANNELS 3 Zrotation Xrotation Yrotation
              JOINT rThumb1
              {
                OFFSET -1.2192 -0.487915 3.41376
                CHANNELS 3 Zrotation Xrotation Yrotation
                JOINT rThumb2
                {
                  OFFSET -3.37035 -0.52449 3.41376
                  CHANNELS 3 Zrotation Xrotation Yrotation
                  End Site
                  {
                    OFFSET -1.78271 -1.18214 1.43049
                  }
                }
              }
              JOINT rIndex1
              {
                OFFSET -7.75947 0.938293 5.60832
                CHANNELS 3 Zrotation Xrotation Yrotation
                JOINT rIndex2
                {
                  OFFSET -2.54057 -0.884171 1.56538
                  CHANNELS 3 Zrotation Xrotation Yrotation
                  End Site
                  {
                    OFFSET -1.62519 -0.234802 1.16502
                  }
                }
              }
              JOINT rMid1
              {
                OFFSET -8.24714 1.18213 3.41376
                CHANNELS 3 Zrotation Xrotation Yrotation
                JOINT rMid2
                {
                  OFFSET -3.10165 -0.590103 1.0647
                  CHANNELS 3 Zrotation Xrotation Yrotation
                  End Site
                  {
                    OFFSET -2.48547 -0.328903 0.83742
                  }
                }
              }
              JOINT rRing1
              {
                OFFSET -8.82822 0.546677 1.51678
                CHANNELS 3 Zrotation Xrotation Yrotation
                JOINT rRing2
                {
                  OFFSET -2.60934 -0.819778 -0.0198488
                  CHANNELS 3 Zrotation Xrotation Yrotation
                  End Site
                  {
                    OFFSET -2.33842 -0.294052 0.168128
                  }
                }
              }
              JOINT rPinky1
              {
                OFFSET -8.27202 -0.0477905 -0.4584
                CHANNELS 3 Zrotation Xrotation Yrotation
                JOINT rPinky2
                {
                  OFFSET -1.82734 -0.647385 -0.700984
                  CHANNELS 3 Zrotation Xrotation Yrotation
                  End Site
                  {
                    OFFSET -1.69225 -0.51767 -0.607171
                  }
                }
              }
            }
          }
        }
      }
      JOINT lCollar
      {
        OFFSET 2.68224 19.2634 -4.8768
        CHANNELS 3 Zrotation Xrotation Yrotation
        JOINT lShldr
        {
          OFFSET 8.77824 -1.95073 1.46304
          CHANNELS 3 Zrotation Xrotation Yrotation
          JOINT lForeArm
          {
            OFFSET 28.1742 -1.7115 0.48768
            CHANNELS 3 Zrotation Xrotation Yrotation
            JOINT lHand
            {
              OFFSET 22.5879 0.773209 7.07136
              CHANNELS 3 Zrotation Xrotation Yrotation
              JOINT lThumb1
              {
                OFFSET 1.2192 -0.487915 3.41376
                CHANNELS 3 Zrotation Xrotation Yrotation
                JOINT lThumb2
                {
                  OFFSET 3.37035 -0.52449 3.41376
                  CHANNELS 3 Zrotation Xrotation Yrotation
                  End Site
                  {
                    OFFSET 1.78271 -1.18214 1.43049
                  }
                }
              }
              JOINT lIndex1
              {
                OFFSET 7.75947 0.938293 5.60832
                CHANNELS 3 Zrotation Xrotation Yrotation
                JOINT lIndex2
                {
                  OFFSET 2.54057 -0.884171 1.56538
                  CHANNELS 3 Zrotation Xrotation Yrotation
                  End Site
                  {
                    OFFSET 1.62519 -0.234802 1.16502
                  }
                }
              }
              JOINT lMid1
              {
                OFFSET 8.24714 1.18213 3.41376
                CHANNELS 3 Zrotation Xrotation Yrotation
                JOINT lMid2
                {
                  OFFSET 3.10165 -0.590103 1.0647
                  CHANNELS 3 Zrotation Xrotation Yrotation
                  End Site
                  {
                    OFFSET 2.48547 -0.328903 0.83742
                  }
                }
              }
              JOINT lRing1
              {
                OFFSET 8.82822 0.546677 1.51678
                CHANNELS 3 Zrotation Xrotation Yrotation
                JOINT lRing2
                {
                  OFFSET 2.60934 -0.819778 -0.0198488
                  CHANNELS 3 Zrotation Xrotation Yrotation
                  End Site
                  {
                    OFFSET 2.33842 -0.294052 0.168128
                  }
                }
              }
              JOINT lPinky1
              {
                OFFSET 8.27202 -0.0477905 -0.4584
                CHANNELS 3 Zrotation Xrotation Yrotation
                JOINT lPinky2
                {
                  OFFSET 1.82734 -0.647385 -0.700984
                  CHANNELS 3 Zrotation Xrotation Yrotation
                  End Site
                  {
                    OFFSET 1.69225 -0.51767 -0.607171
                  }
                }
              }
            }
          }
        }
      }
    }
  }
  JOINT rButtock
  {
    OFFSET -8.77824 4.35084 1.2192
    CHANNELS 3 Zrotation Xrotation Yrotation
    JOINT rThigh
    {
      OFFSET 0 -1.70687 -2.19456
      CHANNELS 3 Zrotation Xrotation Yrotation
      JOINT rShin
      {
        OFFSET 0 -36.8199 0.73152
        CHANNELS 3 Zrotation Xrotation Yrotation
        JOINT rFoot
        {
          OFFSET 0.73152 -45.1104 -5.12064
          CHANNELS 3 Zrotation Xrotation Yrotation
          End Site
          {
            OFFSET -1.1221 -3.69964 12.103
          }
        }
      }
    }
  }
  JOINT lButtock
  {
    OFFSET 8.77824 4.35084 1.2192
    CHANNELS 3 Zrotation Xrotation Yrotation
    JOINT lThigh
    {
      OFFSET 0 -1.70687 -2.19456
      CHANNELS 3 Zrotation Xrotation Yrotation
      JOINT lShin
      {
        OFFSET 0 -36.8199 0.73152
        CHANNELS 3 Zrotation Xrotation Yrotation
        JOINT lFoot
        {
          OFFSET -0.73152 -45.1104 -5.12064
          CHANNELS 3 Zrotation Xrotation Yrotation
          End Site
          {
            OFFSET 1.1221 -3.69964 12.103
          }
        }
      }
    }
  }
}
MOTION
Frames:	8
Frame Time:	0.03333
-34.449600000000004 75.9336 3.4648 -178.022593 32.5562 -173.659067 -0.977451 4.266756 6.519239 0.22766 -6.5289 7.479545 10.22815 22.21577 74.618234 -34.984365 8.713914 -104.295798 11.543081 0.82383 8.137157 -36.960315 -5.250841 15.624641 -10.095715 46.283473 10.202296 -130.600037 6.955281 109.548297 47.520649 6.76881 -144.696601 -171.742451 23.819009 137.820026 -41.86846 29.919563 19.898498 -108.976577 -3.104771 89.352272 -48.134372 21.285838 45.818076 43.819941 -36.005723 -21.795629 3.953172 37.33836 10.513162 -169.740448 49.521515 143.392882 -12.099623 4.070034 12.047103 -140.87647 2.193632 159.934602 24.807094 20.850756 -12.80187 -14.405831 -36.718836 29.616448 108.518181 66.373636 -113.027494 -114.515042 -30.375092 -88.782001 17.38914 24.782908 -117.450986 0.424155 -8.657486 1.533969 157.055324 5.25004 -99.011924 79.119166 6.562264 -30.824913 -36.482965 -55.578917 -3.153263 3.99104 8.514474 14.53525 155.641053 -23.550147 -143.787179 153.065208 -15.598496 -120.173914 -7.935777 14.010279 -13.154719 156.062921 13.572027 -154.325 145.02151 15.846162 118.016978 -23.593786 17.730897 33.233505 119.111203 51.008484 52.406794 -143.778083 33.994161 98.697566 64.771236 -12.866494 108.525446 -158.295832 21.974336 -133.612717 146.768859 74.796922 26.789766 -173.718461 42.54419 -157.560244 -26.236019 -49.994264 85.912878 98.752195 57.56644 -14.16542
-35.1066 75.9679 3.4911 -178.139148 32.75976 -173.764271 -0.619304 4.408887 -4.21247 1.009706 -6.579528 18.834966 11.715074 27.594973 104.562432 -32.148069 27.124904 -130.844391 12.850106 1.131922 10.026296 -34.165875 -4.598811 14.888221 -141.50677 -68.930059 -166.203477 -80.522199 -37.285118 -106.468496 -128.720264 -68.46492 -41.12209 -5.553134 5.781306 -4.329048 159.125888 -33.811521 80.846658 -143.615898 9.112934 83.107089 -149.381801 -15.566492 100.082345 -146.992639 -4.0226 91.373132 -161.686397 -68.134376 143.939967 74.256111 -54.054872 39.01218 -129.954456 50.092387 138.25906 -174.346677 -76.822235 -178.856801 20.006774 13.487073 -16.324696 -166.216298 -7.202454 178.840521 11.832623 42.962476 -14.447093 -64.155189 -1.621729 -25.545733 174.151012 -12.754943 -39.196054 -174.87869 -13.409068 -144.154736 173.005576 -18.49469 -100.811435 -160.596083 -46.898387 -108.156978 -11.615675 -23.059747 2.435105 -57.657087 -77.798796 -9.640065 5.509965 33.778754 -12.257834 169.20517 7.403889 -169.02891 -12.201945 -13.119244 -3.564351 -17.109818 -6.503372 -14.442366 -11.129711 15.563344 20.334903 150.658267 -79.203314 146.847524 -42.765397 37.049334 -48.707337 82.798208 -3.245567 -73.578285 -48.516222 -35.635016 46.528757 141.062586 22.243225 -31.254751 5.7761 -0.875291 3.764153 -15.396812 -31.757205 153.33296 14.424333 -52.971763 -120.827761 61.968635 -33.663255 -18.135641
-35.7282 75.6635 3.5969 -178.044498 33.292444 -173.777876 -0.145235 4.195925 -8.742987 1.029009 -6.332806 24.171271 12.120863 27.125354 102.727031 -32.740268 26.205825 -129.064314 10.72703 0.701214 7.458369 -30.467538 -4.76202 17.362386 0.378408 1.167393 -6.477668 -112.149939 -11.159911 142.132763 -116.906845 -19.661792 -44.597016 7.519976 -33.493609 -1.875088 -11.746374 10.749856 5.167882 -10.892266 5.706095 9.995709 34.76644 -31.376057 17.33702 -2.406554 3.295017 -22.819057 -144.531371 -19.803049 146.124725 -73.270979 59.365089 87.128445 -56.294822 -82.369565 -61.635349 -145.283947 16.134607 -171.857629 -150.429211 41.567541 -122.461832 -118.286043 -3.193911 -84.501263 145.350907 31.978414 -151.466448 -66.546069 -42.122805 -93.763864 -147.398686 44.932603 -59.104502 175.617779 18.217518 -143.441772 168.91657 -11.349996 -100.495518 144.481338 9.237093 -80.374451 168.063412 -33.854238 -118.501079 16.239816 11.156678 -10.186223 163.589042 -44.467398 -143.662757 35.732657 31.582615 -45.774341 -9.732327 -44.084487 6.052542 136.591082 19.53654 -162.466624 -7.900713 15.465352 22.359243 -8.906143 -31.497855 -29.409794 80.058382 19.048913 37.375738 -89.364057 1.27695 163.118135 -0.403602 -58.744222 97.736834 25.071846 1.773527 67.991651 -171.559478 76.865062 -7.418856 170.417152 43.897146 -83.568437 -64.05175 3.237596 -112.740826 109.619923 52.457396 154.28803
-36.3073 75.346 3.7093000000000003 -177.89143 33.29769 -174.040941 0.10994 0.005683 -171.159015 0.573681 2.034871 -173.415885 -9.861335 25.277397 -70.486477 34.158416 -7.999908 43.107018 9.306821 0.083401 1.024601 -28.861345 -4.718365 18.192043 -2.205878 25.360782 -0.073444 -112.187632 0.704065 121.968973 -146.252357 -48.95063 -62.611597 -5.177779 3.958906 -3.494272 -176.672617 -14.005053 86.849089 -39.682082 -18.208249 8.641209 -163.007106 -27.581635 101.18417 27.352581 -18.768469 16.638093 -2.567526 41.375187 16.086922 -176.178044 -0.084053 158.065518 -38.403846 -79.987994 -43.169513 -31.22009 -66.282116 -68.075362 -126.341421 17.41389 -124.485092 -128.651095 25.366227 -105.7166 0.085763 6.871953 -1.366925 109.402617 -13.454284 174.342698 -177.615275 -29.023347 75.208465 9.009441 20.550664 -0.261702 -123.633056 -59.030363 -63.648178 22.554409 -16.390202 15.116525 3.300975 -5.555938 -2.140605 -70.93982 -78.528998 -10.675929 152.277353 -12.666536 -142.491622 157.855638 -28.116983 -127.147145 138.71835 -25.398954 -179.45126 141.455526 -27.194323 162.668666 -22.018277 31.340033 21.846926 165.656186 -52.105565 164.094329 99.723533 36.847977 47.20664 -113.779302 19.852115 -150.354994 -52.692479 -25.403607 -170.113114 -23.009699 16.214604 -80.791768 10.360709 0.614952 10.280972 -22.103261 -29.627938 -86.367861 -60.503195 11.438404 -44.980657 4.947298 26.863225 132.915299
-36.8265 75.23490000000001 3.7872999999999997 -177.858219 33.210053 -174.374793 0.052132 0.528614 -175.425583 0.658043 2.455235 -169.510042 11.845126 28.798688 117.251966 -27.643271 33.318133 -141.858572 11.523629 0.078817 0.781105 -28.88361 -4.134455 15.957025 1.210964 -4.668963 -6.756856 -113.882657 -18.020482 147.192423 -4.984828 56.901862 -120.706767 170.264556 -28.343554 140.489718 0.871616 -0.722043 3.269029 -157.872619 -70.897145 124.57149 -117.32007 9.227887 91.446878 133.520501 -57.091856 54.314873 61.9848 -76.215212 17.052019 -0.046381 -1.75031 19.368918 -8.484592 -44.268829 -2.932272 -133.679531 -8.799653 -179.841794 135.739033 71.50479 -70.491848 111.072229 54.89759 -105.911433 114.410226 63.494792 -119.039756 102.239224 18.352747 -104.731631 -12.5011 -6.376754 142.357342 -177.498058 -2.909339 -143.97757 175.13511 -17.398035 -99.126589 103.314277 21.010939 -48.944219 8.819859 2.498915 -4.752887 151.592995 -24.791841 -128.25333 -4.021492 15.89195 -5.308768 157.241654 -76.522218 172.586197 133.038845 -62.682371 163.922776 74.01176 -74.054025 107.538445 -31.321013 42.793736 22.359733 56.997837 59.496261 -79.661721 -7.4046 8.10923 -24.631811 30.125978 -30.056269 -7.468686 -49.007907 37.559856 -33.371037 165.809129 9.742394 -68.002227 -5.783388 -0.011339 -1.090565 -0.771506 -33.827992 164.827479 4.407433 -58.347647 -104.26694 -109.547264 29.757996 11.393519
-37.270199999999996 75.1875 3.8150000000000004 -177.81067 33.028487 -174.593111 0.629455 1.058033 -161.6714 2.142849 2.42576 176.2366 4.399808 34.681569 173.874614 9.037381 44.674042 150.518057 15.301193 0.312496 2.326062 -29.509686 -3.329618 12.595028 -151.832432 18.66013 161.559984 137.833586 0.330965 -173.664055 155.23327 -58.355804 25.734632 175.975696 -10.809864 142.319316 52.518219 -38.108832 15.66106 -150.74402 -14.126015 121.8785 -88.878873 22.038367 75.823589 -8.103514 51.408375 20.866124 -6.181781 44.007628 18.691876 -7.606429 -36.724182 -18.495813 -44.931009 -78.500633 -48.68053 73.163004 76.81949 -46.372797 -23.807224 -31.636567 -49.234441 -145.281053 -71.727733 -172.54083 147.933174 -75.611709 173.286975 -155.364116 8.390296 148.080202 133.524676 -16.397589 -37.385014 -142.529901 -62.505121 -122.359144 8.919969 13.816222 6.050621 91.67749 9.249563 -80.55224 -103.331409 -73.035095 -57.994996 157.820666 20.923792 -114.974682 156.914085 -27.719638 -144.496087 23.578703 40.409483 -40.24104 139.299138 -14.819584 -176.158292 175.467288 65.257389 165.245297 -18.299819 35.390651 16.848509 50.776217 59.857796 -84.835881 7.56251 3.114364 -13.999667 6.015338 -34.156584 22.533365 6.68726 62.376527 -145.074584 134.533811 -34.967744 -146.425574 165.216304 75.210973 7.000018 -177.296129 43.739798 1.472336 25.216593 55.83709 66.555236 -169.128425 -81.528855 94.669984
-37.6426 75.19019999999999 3.7851000000000004 -177.80343 32.951024 -174.717663 -0.253782 5.911796 0.923633 -0.722514 -7.829715 13.325692 -9.945879 24.351304 -73.780801 33.564682 -5.669307 46.825253 19.786374 0.804368 4.609648 -29.753938 -2.429991 9.129382 2.203173 -22.479245 -9.304021 69.999668 2.712192 13.717806 160.701401 -78.794183 29.846197 172.071773 -21.314194 141.736303 173.631119 -21.376252 84.195534 35.825938 -66.732546 29.218765 -3.518062 5.833485 21.701242 -33.054833 72.121743 12.192268 -150.774706 -35.543666 146.172753 -150.041829 -15.821995 135.761587 -141.233309 43.845219 151.030236 -35.674951 -84.395921 -36.601604 29.08037 14.795707 -13.666347 -45.958929 43.057526 56.256245 135.975333 -80.494487 160.222614 17.252501 8.949001 36.589477 172.691046 35.463251 75.31504 6.845348 13.238857 0.301702 -131.626066 -56.42564 -70.368229 118.000976 29.682592 -74.889671 0.452675 -7.256777 -0.837035 166.343499 -49.537088 -126.647883 150.870457 -9.072565 -143.619325 -41.537454 -32.390491 -9.307697 137.04955 5.85719 -170.340836 -5.383687 -1.723709 18.397542 -4.514291 23.077161 14.02249 90.299205 61.182953 -138.235472 -42.383763 33.178224 -45.089862 77.546005 -6.152633 86.365816 49.040377 35.906174 40.822128 -11.450862 48.943543 -96.095493 -102.553958 54.831723 -49.790106 123.236317 28.124955 137.907637 63.50875 -16.64107 114.622223 -68.393319 35.486981 176.415045
-38.037 75.2973 3.7227 -177.836165 33.405807 -174.625317 -0.331543 1.105806 176.284629 0.314255 3.132027 -161.769551 11.58308 23.592779 92.451246 -32.863137 19.470659 -118.45323 24.130529 1.587731 7.418166 -28.636716 -1.798531 7.038198 -148.979268 -62.374628 -175.997337 -167.12289 11.192389 -129.197983 -177.926652 4.156314 52.470443 171.13724 -23.521956 141.550427 -157.398593 3.153298 84.435567 53.893821 -53.608032 41.259052 -150.444855 -23.963684 103.603241 0.707893 18.573413 22.623555 11.867205 20.729143 4.951192 -3.228259 -62.674201 -8.558702 -50.093816 61.189585 54.762742 156.061202 -73.691105 139.85181 -153.465381 47.202614 -121.966384 43.062972 34.957085 -47.54463 1.740885 15.792343 -2.060797 109.828964 -18.881805 179.918311 -18.747991 1.889063 143.553413 -179.648839 3.12382 -144.909641 -6.769769 -7.824369 9.975595 126.480973 -14.833695 -111.032913 -105.723846 -74.737302 -58.96811 3.057499 0.418955 7.328516 -35.815439 -66.233667 -1.570601 129.189262 43.755571 -98.546775 136.60477 9.231176 -169.325719 160.886001 0.776494 172.063298 67.827581 -32.180793 57.613873 -7.467861 -32.585259 30.496301 39.457524 2.675101 8.511259 -40.993403 -29.923993 -174.349592 -15.64467 -57.536924 81.889664 98.325146 46.448226 2.46482 131.077317 71.978031 29.976105 -159.764596 40.166063 109.896109 61.309168 -33.333813 86.923983 142.348219 11.984685 166.009202
